<svg width="122" height="27" viewBox="0 0 122 27" fill="none" xmlns="http://www.w3.org/2000/svg">
<path d="M12.5 0.867765L15.067 9.40029L15.1206 9.57827H15.3064H23.6646L16.8866 14.8968L16.7523 15.0021L16.8015 15.1655L19.3804 23.7376L12.6543 18.4599L12.5 18.3388L12.3457 18.4599L5.61957 23.7376L8.19851 15.1655L8.24766 15.0021L8.11344 14.8968L1.33538 9.57827H9.69357H9.87943L9.93297 9.40029L12.5 0.867765Z" fill="#52057B" stroke="#52057B" stroke-width="0.5"/>
<path d="M37.5 0.867765L40.067 9.40029L40.1206 9.57827H40.3064H48.6646L41.8866 14.8968L41.7523 15.0021L41.8015 15.1655L44.3804 23.7376L37.6543 18.4599L37.5 18.3388L37.3457 18.4599L30.6196 23.7376L33.1985 15.1655L33.2477 15.0021L33.1134 14.8968L26.3354 9.57827H34.6936H34.8794L34.933 9.40029L37.5 0.867765Z" fill="#52057B" stroke="#52057B" stroke-width="0.5"/>
<path d="M62.5 0.867765L65.067 9.40029L65.1206 9.57827H65.3064H73.6646L66.8866 14.8968L66.7523 15.0021L66.8015 15.1655L69.3804 23.7376L62.6543 18.4599L62.5 18.3388L62.3457 18.4599L55.6196 23.7376L58.1985 15.1655L58.2477 15.0021L58.1134 14.8968L51.3354 9.57827H59.6936H59.8794L59.933 9.40029L62.5 0.867765Z" fill="#52057B" stroke="#52057B" stroke-width="0.5"/>
<path d="M87.5 0.867765L90.067 9.40029L90.1206 9.57827H90.3064H98.6646L91.8866 14.8968L91.7523 15.0021L91.8015 15.1655L94.3804 23.7376L87.6543 18.4599L87.5 18.3388L87.3457 18.4599L80.6196 23.7376L83.1985 15.1655L83.2477 15.0021L83.1134 14.8968L76.3354 9.57827H84.6936H84.8794L84.933 9.40029L87.5 0.867765Z" fill="#52057B" stroke="#52057B" stroke-width="0.5"/>
<path d="M109.5 0.867765L112.067 9.40029L112.121 9.57827H112.306H120.665L113.887 14.8968L113.752 15.0021L113.801 15.1655L116.38 23.7376L109.654 18.4599L109.5 18.3388L109.346 18.4599L102.62 23.7376L105.199 15.1655L105.248 15.0021L105.113 14.8968L98.3354 9.57827H106.694H106.879L106.933 9.40029L109.5 0.867765Z" fill="#D9D9D9" stroke="#52057B" stroke-width="0.5"/>
</svg>
