<svg width="38" height="43" viewBox="0 0 38 43" fill="none" xmlns="http://www.w3.org/2000/svg">
<g filter="url(#filter0_d_143_62)">
<mask id="path-1-inside-1_143_62" fill="white">
<path fill-rule="evenodd" clip-rule="evenodd" d="M34 0H4V35H4.45077L19 28L33.5492 35H34V0Z"/>
</mask>
<path fill-rule="evenodd" clip-rule="evenodd" d="M34 0H4V35H4.45077L19 28L33.5492 35H34V0Z" fill="#892CDC"/>
<path d="M4 0V-0.5H3.5V0H4ZM34 0H34.5V-0.5H34V0ZM4 35H3.5V35.5H4V35ZM4.45077 35V35.5H4.5648L4.66755 35.4506L4.45077 35ZM19 28L19.2168 27.5494L19 27.4451L18.7832 27.5494L19 28ZM33.5492 35L33.3324 35.4506L33.4352 35.5H33.5492V35ZM34 35V35.5H34.5V35H34ZM4 0.5H34V-0.5H4V0.5ZM4.5 35V0H3.5V35H4.5ZM4.45077 34.5H4V35.5H4.45077V34.5ZM4.66755 35.4506L19.2168 28.4506L18.7832 27.5494L4.234 34.5494L4.66755 35.4506ZM18.7832 28.4506L33.3324 35.4506L33.766 34.5494L19.2168 27.5494L18.7832 28.4506ZM34 34.5H33.5492V35.5H34V34.5ZM33.5 0V35H34.5V0H33.5Z" fill="#892CDC" mask="url(#path-1-inside-1_143_62)"/>
</g>
<defs>
<filter id="filter0_d_143_62" x="0" y="0" width="38" height="43" filterUnits="userSpaceOnUse" color-interpolation-filters="sRGB">
<feFlood flood-opacity="0" result="BackgroundImageFix"/>
<feColorMatrix in="SourceAlpha" type="matrix" values="0 0 0 0 0 0 0 0 0 0 0 0 0 0 0 0 0 0 127 0" result="hardAlpha"/>
<feOffset dy="4"/>
<feGaussianBlur stdDeviation="2"/>
<feComposite in2="hardAlpha" operator="out"/>
<feColorMatrix type="matrix" values="0 0 0 0 0 0 0 0 0 0 0 0 0 0 0 0 0 0 0.25 0"/>
<feBlend mode="normal" in2="BackgroundImageFix" result="effect1_dropShadow_143_62"/>
<feBlend mode="normal" in="SourceGraphic" in2="effect1_dropShadow_143_62" result="shape"/>
</filter>
</defs>
</svg>
