<svg width="50" height="50" viewBox="0 0 50 50" fill="none" xmlns="http://www.w3.org/2000/svg">
<path fill-rule="evenodd" clip-rule="evenodd" d="M25 50C38.8071 50 50 38.8071 50 25C50 11.1929 38.8071 0 25 0C11.1929 0 0 11.1929 0 25C0 38.8071 11.1929 50 25 50ZM9 27.1347V23.3819V20.2583H13.9941L24 14V36.5166L13.9941 30.2583H9V27.1347ZM34.8544 22.8344L30.2866 17.3907L27.9884 19.3191L32.8962 25.1679L27.7661 31.2818L30.0642 33.2102L34.8544 27.5015L39.4329 32.9581L41.7311 31.0297L36.8125 25.1679L41.5087 19.5712L39.2106 17.6428L34.8544 22.8344Z" fill="#D9D9D9" fill-opacity="0.5"/>
</svg>
