<svg width="50" height="50" viewBox="0 0 50 50" fill="none" xmlns="http://www.w3.org/2000/svg">
<path fill-rule="evenodd" clip-rule="evenodd" d="M25 50C38.8071 50 50 38.8071 50 25C50 11.1929 38.8071 0 25 0C11.1929 0 0 11.1929 0 25C0 38.8071 11.1929 50 25 50ZM9 27.1347V23.3819V20.2583H13.9941L24 14V36.5167L13.994 30.2583H9V27.1347ZM35 32C38.866 32 42 28.866 42 25C42 21.134 38.866 18 35 18C31.134 18 28 21.134 28 25C28 28.866 31.134 32 35 32ZM35 30C37.7614 30 40 27.7614 40 25C40 22.2386 37.7614 20 35 20C32.2386 20 30 22.2386 30 25C30 27.7614 32.2386 30 35 30Z" fill="#D9D9D9" fill-opacity="0.5"/>
</svg>
